<?xml version="1.0" standalone="no"?>
<!DOCTYPE svg PUBLIC "-//W3C//DTD SVG 20010904//EN"
 "http://www.w3.org/TR/2001/REC-SVG-20010904/DTD/svg10.dtd">
<svg version="1.0" xmlns="http://www.w3.org/2000/svg"
 width="500.000000pt" height="500.000000pt" viewBox="0 0 500.000000 500.000000"
 preserveAspectRatio="xMidYMid meet">
<metadata>
Created by potrace 1.14, written by Peter Selinger 2001-2017
</metadata>
<g transform="translate(0.000000,500.000000) scale(0.100000,-0.100000)"
fill="#000000" stroke="none">
<path d="M2381 4973 c-1 -6 -12 -10 -26 -8 -14 1 -28 -1 -30 -5 -3 -5 -13 -7
-23 -5 -9 1 -28 -2 -42 -7 -14 -5 -33 -11 -43 -13 -38 -8 -57 -17 -57 -26 0
-6 -5 -7 -12 -3 -6 4 -17 -1 -24 -10 -7 -10 -15 -17 -19 -16 -3 1 -34 -15 -68
-36 -34 -21 -65 -38 -69 -36 -5 1 -8 -5 -8 -13 0 -8 -3 -14 -7 -13 -5 2 -23
-12 -42 -30 -19 -17 -38 -32 -43 -32 -5 0 -7 -4 -3 -9 3 -5 -2 -16 -10 -24 -8
-9 -15 -20 -15 -26 0 -6 -4 -11 -10 -11 -5 0 -10 -7 -10 -16 0 -9 -5 -12 -12
-8 -6 4 -8 3 -4 -4 3 -6 -1 -17 -9 -26 -9 -8 -16 -17 -16 -18 1 -16 -13 -48
-21 -48 -5 0 -7 -4 -3 -9 3 -5 1 -12 -5 -16 -5 -3 -10 -15 -10 -26 0 -11 -4
-17 -10 -14 -5 3 -10 1 -10 -5 0 -7 -11 -5 -29 4 -16 9 -31 12 -35 9 -3 -4 -6
-1 -6 5 0 7 -3 11 -7 11 -25 -4 -63 2 -59 10 3 4 -21 8 -52 8 -32 0 -62 2 -68
5 -15 8 -161 -3 -194 -15 -8 -3 -33 -11 -54 -18 -64 -19 -126 -49 -126 -60 0
-6 -4 -7 -10 -4 -5 3 -21 -5 -35 -19 -14 -14 -25 -23 -25 -21 0 3 -8 -3 -18
-12 -11 -10 -42 -39 -70 -65 -29 -27 -48 -48 -44 -48 4 0 3 -4 -3 -8 -5 -4
-16 -18 -23 -31 -8 -13 -22 -38 -32 -56 -10 -18 -16 -36 -13 -39 4 -3 1 -6 -6
-6 -8 0 -11 -7 -7 -15 3 -8 2 -15 -3 -15 -4 0 -8 -6 -9 -12 0 -7 -3 -24 -7
-38 -4 -14 -7 -34 -6 -45 0 -10 -5 -26 -12 -34 -10 -12 -9 -13 1 -7 16 10 13
-25 -3 -36 -7 -5 -7 -8 0 -8 6 0 10 -31 10 -72 l0 -71 -52 -12 c-29 -7 -55
-10 -58 -7 -3 3 -5 0 -5 -5 0 -6 -8 -10 -18 -8 -9 1 -22 -1 -28 -6 -6 -5 -21
-10 -33 -12 -12 -2 -31 -11 -41 -20 -11 -9 -20 -15 -20 -12 0 7 -36 -23 -97
-80 -29 -27 -53 -56 -53 -62 0 -7 -4 -13 -8 -13 -9 0 -47 -62 -44 -72 1 -5 -5
-8 -14 -8 -8 0 -12 -5 -9 -10 4 -6 1 -17 -5 -25 -6 -8 -9 -19 -5 -25 3 -5 2
-10 -3 -10 -22 0 -37 -149 -27 -256 4 -41 11 -72 16 -69 5 4 6 -1 3 -10 -4 -8
-1 -22 6 -30 6 -8 9 -19 5 -25 -3 -5 -2 -10 4 -10 5 0 12 -13 16 -30 5 -22 1
-38 -15 -60 -12 -16 -18 -30 -13 -30 4 0 0 -5 -10 -11 -9 -6 -15 -14 -12 -20
4 -5 2 -9 -4 -9 -5 0 -13 -15 -17 -32 -10 -42 -9 -40 -18 -60 -5 -10 -9 -29
-10 -43 0 -14 -4 -25 -7 -25 -8 0 -6 -172 2 -185 4 -5 5 -20 4 -33 -1 -12 1
-22 5 -22 3 0 6 -9 7 -20 1 -11 9 -34 17 -50 8 -17 10 -28 5 -25 -5 4 5 -15
23 -42 45 -67 142 -160 183 -175 19 -6 35 -16 35 -20 0 -4 3 -7 8 -6 4 0 24
-6 44 -15 21 -10 48 -19 60 -21 13 -3 23 -5 23 -6 0 -1 19 -3 41 -5 23 -1 54
-5 68 -9 16 -4 26 -2 26 4 0 7 6 8 19 1 10 -6 21 -7 25 -4 4 4 14 8 22 9 9 1
13 0 11 -3 -15 -14 134 -193 160 -193 7 0 13 -4 13 -10 0 -5 6 -7 14 -4 7 3
16 -2 19 -10 4 -9 15 -16 26 -16 11 0 23 -5 26 -10 4 -6 11 -8 16 -5 5 4 9 2
9 -4 0 -5 11 -8 25 -6 14 1 25 -1 25 -5 0 -4 35 -6 78 -5 111 5 141 9 135 17
-2 5 3 9 11 9 32 3 36 4 56 21 11 10 20 16 20 13 0 -3 14 4 31 14 38 23 41 21
109 -81 24 -37 48 -64 52 -62 5 3 8 2 6 -3 -6 -24 48 -113 69 -113 5 0 16 -9
26 -20 9 -11 23 -20 29 -20 7 0 19 -9 26 -20 7 -11 18 -20 25 -20 7 0 21 -11
31 -25 10 -13 24 -22 30 -18 6 3 8 3 4 -1 -4 -5 2 -17 12 -29 11 -11 17 -23
15 -27 -2 -4 -7 -20 -9 -36 -3 -16 -9 -40 -12 -54 -3 -14 -6 -35 -7 -47 -1
-13 -4 -23 -8 -23 -3 0 -5 -10 -5 -23 1 -12 -2 -27 -6 -33 -5 -7 -8 -16 -7
-20 1 -5 0 -11 -1 -14 -4 -13 -12 -47 -13 -62 -1 -10 -5 -18 -10 -18 -4 0 -6
-4 -2 -9 3 -5 1 -12 -5 -16 -6 -4 -8 -11 -5 -16 4 -5 1 -9 -4 -9 -6 0 -11 -4
-11 -10 0 -15 -71 -124 -87 -133 -7 -5 -11 -13 -7 -18 3 -5 2 -8 -3 -7 -4 2
-26 -15 -48 -37 -22 -22 -53 -48 -69 -59 -29 -18 -29 -18 -23 3 3 11 2 21 -3
21 -4 0 -10 17 -13 38 -7 58 -15 82 -43 140 -28 57 -31 61 -133 167 -103 106
-116 114 -173 103 -19 -4 -40 -27 -34 -37 3 -5 0 -11 -7 -14 -16 -6 -14 -155
3 -242 6 -33 12 -69 13 -80 1 -11 5 -22 8 -25 3 -3 11 -25 18 -50 23 -87 23
-86 -12 -53 -17 17 -45 42 -61 55 -15 12 -36 31 -46 40 -10 9 -21 14 -24 10
-3 -3 -6 1 -6 8 0 7 -3 11 -6 7 -3 -3 -15 3 -27 14 -11 10 -27 19 -34 19 -7 0
-22 4 -33 10 -11 5 -29 14 -40 20 -13 6 -21 6 -25 -1 -5 -7 -12 -6 -21 2 -19
16 -110 15 -129 -1 -8 -7 -15 -9 -15 -4 0 14 -29 -30 -30 -45 0 -8 -7 -23 -16
-33 -15 -16 -15 -18 0 -24 9 -3 14 -10 11 -14 -7 -11 36 -110 47 -110 5 0 6
-4 3 -10 -3 -5 -1 -10 5 -10 6 0 8 -4 5 -10 -3 -5 -1 -10 6 -10 7 0 9 -3 6 -7
-4 -4 5 -19 20 -35 14 -15 25 -29 22 -30 -2 -2 -39 -20 -81 -40 -43 -21 -78
-43 -78 -49 0 -5 -4 -8 -8 -5 -5 3 -17 -5 -27 -17 -21 -24 -26 -88 -7 -95 7
-2 10 -7 8 -11 -5 -7 110 -86 124 -86 3 0 22 -8 43 -18 38 -18 64 -26 102 -31
11 -2 27 -6 35 -9 13 -4 58 -16 135 -33 11 -3 31 -7 45 -10 151 -29 189 -36
211 -39 15 -1 32 -5 38 -9 6 -4 11 -2 11 5 0 8 3 9 14 0 7 -6 24 -10 37 -10
13 1 38 -1 54 -4 17 -4 49 -7 73 -9 23 -1 42 -4 42 -7 0 -4 24 -7 53 -8 135
-5 177 -8 177 -13 0 -3 19 -5 43 -6 175 -4 225 -9 220 -18 -4 -6 0 -5 8 1 12
10 18 10 27 1 9 -9 12 -9 12 1 0 9 4 10 13 4 12 -9 721 -9 762 0 11 2 25 0 32
-5 7 -5 13 -5 17 0 5 8 126 16 214 15 12 -1 22 2 22 6 0 3 30 7 68 7 71 2 227
12 227 15 0 1 16 3 36 4 19 1 40 4 45 7 5 3 34 6 64 7 30 2 57 6 60 9 3 4 19
7 35 6 17 0 35 3 40 6 6 4 19 7 30 8 11 0 34 3 50 7 17 3 39 8 50 9 11 2 20 4
20 6 0 1 11 3 25 4 38 4 173 36 190 45 8 4 29 7 47 6 17 0 30 2 27 6 -2 4 12
10 31 13 19 4 35 11 35 16 0 6 3 9 8 8 13 -4 52 13 52 23 0 5 3 8 8 7 22 -4
102 59 102 81 0 6 4 11 8 11 17 0 -1 60 -25 84 -13 13 -54 39 -91 57 -67 33
-73 35 -92 38 -10 1 28 63 43 69 4 2 5 8 1 13 -3 5 0 9 6 9 6 0 8 5 5 10 -3 6
-2 10 3 10 5 0 19 29 31 65 22 69 28 141 11 130 -5 -3 -10 0 -10 7 0 30 -35
45 -106 45 -38 0 -73 -3 -79 -7 -5 -4 -25 -11 -42 -15 -18 -3 -33 -11 -33 -15
0 -5 -7 -7 -15 -4 -8 4 -15 1 -15 -7 0 -7 -3 -10 -6 -6 -3 3 -15 -3 -27 -14
-11 -10 -27 -19 -34 -19 -8 0 -11 -4 -8 -10 3 -5 -6 -12 -20 -16 -14 -3 -25
-10 -25 -15 0 -4 -16 -19 -35 -32 -19 -13 -33 -26 -30 -28 2 -3 -5 -10 -15
-17 -17 -10 -19 -10 -17 5 1 10 6 23 9 29 4 6 9 21 12 35 3 13 12 56 21 94 23
96 29 300 9 315 -7 7 -11 16 -8 21 3 5 -2 9 -10 9 -9 0 -16 4 -16 9 0 4 -12 7
-27 5 -31 -3 -73 -24 -73 -36 0 -4 -5 -8 -11 -8 -25 0 -164 -170 -197 -240
-27 -60 -41 -103 -36 -111 3 -5 1 -9 -4 -9 -6 0 -10 -6 -9 -12 3 -80 -8 -91
-51 -50 -13 12 -29 19 -35 16 -7 -4 -9 -4 -6 -1 3 4 -19 32 -48 63 -29 30 -53
61 -53 69 0 7 -3 15 -7 17 -13 5 -53 66 -53 81 0 7 -5 18 -12 25 -7 7 -9 12
-5 12 4 0 2 10 -5 23 -7 12 -11 25 -10 29 1 4 -3 19 -8 34 -11 28 -23 87 -24
117 0 9 -3 17 -6 17 -3 0 -6 20 -5 45 0 25 -3 45 -6 45 -3 0 -6 15 -7 33 -1
27 6 39 36 64 20 18 57 50 82 72 25 22 49 41 53 41 10 0 62 51 66 62 6 24 16
43 30 58 34 36 49 59 44 64 -4 3 -1 6 5 6 7 0 12 6 12 13 0 8 9 22 20 32 11
10 17 21 15 25 -8 14 27 21 41 9 8 -6 14 -8 14 -5 0 4 12 -1 28 -12 31 -22
112 -55 112 -46 0 4 6 2 13 -4 11 -10 135 -9 182 1 36 8 105 40 105 49 0 4 6
8 13 8 7 0 29 15 49 34 20 19 40 31 44 28 4 -4 5 -2 1 3 -3 6 8 26 24 44 16
18 26 37 23 42 -3 5 -1 9 5 9 6 0 13 10 16 23 6 21 11 22 85 21 43 0 107 6
142 14 71 16 188 70 195 89 3 7 9 13 14 13 13 0 69 58 69 71 0 6 4 8 8 5 4 -3
19 15 32 40 14 24 28 44 33 44 4 0 5 5 2 10 -3 6 -2 10 4 10 5 0 8 9 6 20 -2
11 0 20 5 20 8 0 24 52 20 66 -1 4 4 11 12 15 11 7 11 9 -1 9 -9 0 -10 4 -4
13 5 6 9 33 9 60 -1 26 3 47 8 47 5 0 4 6 -1 13 -5 6 -8 27 -8 45 1 17 -2 32
-6 32 -4 0 -6 14 -5 31 1 19 -4 33 -13 39 -9 5 -14 11 -12 15 6 9 -21 75 -31
75 -4 0 -8 5 -8 10 0 6 -9 20 -20 32 -11 12 -20 28 -20 37 0 8 -2 12 -5 9 -3
-3 -20 7 -38 23 -71 62 -92 79 -100 79 -10 0 -5 33 6 41 4 3 9 16 10 27 1 12
4 22 7 22 4 0 7 6 8 13 2 24 14 81 21 101 14 38 12 160 -4 216 -9 30 -18 62
-20 72 -2 9 -10 29 -19 46 -8 16 -12 33 -8 37 4 5 1 5 -5 1 -7 -4 -13 -2 -13
3 0 11 -12 26 -60 80 -14 16 -54 43 -90 62 -36 19 -67 37 -68 42 -2 4 -8 5
-13 1 -5 -3 -9 -1 -9 4 0 11 -59 41 -91 47 -12 2 -28 10 -37 17 -8 7 -17 12
-19 11 -14 -11 -18 11 -15 107 3 82 0 115 -10 127 -11 14 -11 16 2 8 13 -8 13
-7 1 8 -7 9 -11 17 -8 17 13 0 -45 143 -68 170 -8 8 -15 21 -17 29 -5 22 -109
131 -125 131 -8 0 -12 4 -9 8 2 4 -10 14 -27 22 -18 7 -34 16 -37 20 -8 11
-153 77 -192 88 -20 6 -39 7 -42 4 -3 -3 -6 -1 -6 5 0 10 -6 11 -65 14 -19 0
-35 6 -35 13 0 7 -3 7 -8 1 -4 -5 -36 -10 -72 -11 -62 -1 -92 -5 -150 -19 -38
-9 -43 -11 -75 -25 -48 -21 -53 -20 -67 11 -7 16 -16 29 -20 29 -5 0 -8 6 -8
13 0 7 -15 30 -34 52 -19 22 -32 44 -29 50 4 5 3 7 -1 3 -4 -3 -28 14 -52 38
-25 24 -49 44 -55 44 -5 0 -17 8 -27 18 -23 21 -84 56 -94 54 -5 -1 -8 3 -8 9
0 6 -7 9 -15 5 -8 -3 -15 -1 -15 3 0 11 -56 31 -64 24 -3 -4 -6 -1 -6 5 0 7
-3 11 -7 11 -5 -1 -10 0 -13 1 -3 1 -12 3 -20 5 -8 2 -28 6 -45 10 -73 16
-185 22 -203 11 -6 -3 -13 0 -15 6 -4 9 -6 9 -6 1z m-456 -3082 c11 -1 12 -91
1 -109 -3 -5 0 -13 6 -15 10 -4 9 -8 -2 -16 -8 -6 -10 -11 -5 -11 11 0 12 -61
1 -78 -4 -7 -3 -12 2 -12 9 0 6 -69 -3 -78 -4 -4 -64 35 -75 48 -12 15 -77 59
-81 56 -3 -4 -4 148 0 202 1 16 10 18 74 16 39 -1 77 -2 82 -3z m1361 0 c17
-2 10 -211 -7 -222 -26 -15 -63 -44 -81 -61 -10 -10 -21 -18 -25 -18 -3 0 -15
-8 -25 -17 -18 -16 -19 -12 -18 149 1 92 3 168 5 170 3 3 120 2 151 -1z
m-1527 -1531 c24 -17 34 -50 20 -71 -5 -8 -9 -9 -9 -3 0 7 -8 11 -17 10 -11 0
-17 5 -15 13 2 11 0 12 -11 2 -14 -11 -67 0 -67 15 0 3 8 3 18 -1 14 -5 15 -4
4 7 -10 10 -8 16 9 29 26 19 38 19 68 -1z"/>
</g>
</svg>
